<?xml version="1.0" encoding="UTF-8"?>
<!-- Generated by Pixelmator Pro 3.7.1 -->
<svg width="1024" height="1024" viewBox="0 0 1024 1024" xmlns="http://www.w3.org/2000/svg">
    <g id="light">
        <path id="Oval" fill="#ffffff" fill-rule="evenodd" stroke="none" d="M 1024 512 C 1024 229.230225 794.769775 0 512 0 C 229.230209 0 0 229.230225 0 512 C 0 794.769775 229.230209 1024 512 1024 C 794.769775 1024 1024 794.769775 1024 512 Z"/>
        <path id="Shape" fill="#000000" fill-rule="evenodd" stroke="none" d="M 533.144043 866.888733 C 519.589844 866.827515 503.027283 866.179993 496.33844 865.449768 C 489.649567 864.719604 478.849579 863.157349 472.33844 861.978149 C 465.827301 860.799011 454.649994 858.320984 447.5 856.471436 C 440.350006 854.621948 428.649994 851.122559 421.5 848.695068 C 414.350006 846.267578 403.500061 842.227478 397.389008 839.717041 C 391.277954 837.206604 379.802948 831.91864 371.889008 827.965942 C 363.975037 824.013306 352.765198 817.937134 346.978241 814.463379 C 341.191284 810.989624 331.56781 804.724976 325.592773 800.541992 C 319.617737 796.359009 309.952545 789.029114 304.114532 784.253296 C 298.27655 779.477539 287.164185 769.254333 279.42038 761.535034 C 271.676605 753.815796 261.211639 742.405396 256.164886 736.178711 C 251.118164 729.951904 243.906448 720.501953 240.138855 715.178711 C 236.371262 709.855408 230.031143 700.099976 226.049683 693.5 C 222.068237 686.900024 216.63858 677.19104 213.98381 671.924561 C 211.329025 666.65802 207.054962 657.433044 204.485886 651.424561 C 201.916794 645.416016 197.666336 634.200012 195.040405 626.5 C 192.414474 618.799988 188.63504 605.974976 186.641663 598 C 184.64827 590.025024 181.915359 576.45697 180.568512 567.848877 C 179.22168 559.240723 177.570343 544.794373 176.89888 535.74585 C 176.137344 525.483276 175.91011 511.432312 176.294876 498.396973 C 176.634125 486.903625 177.838181 470.34375 178.970551 461.597229 C 180.102921 452.850708 182.341843 439.720764 183.945923 432.419556 C 185.550018 425.118347 188.476212 413.696106 190.448593 407.036804 C 192.420975 400.377502 196.498611 388.609314 199.509995 380.885254 C 202.521393 373.161133 207.873718 360.914612 211.404053 353.670715 C 214.934402 346.426819 221.014496 335.161804 224.915375 328.637329 C 228.816269 322.112915 234.978119 312.514526 238.608398 307.307617 C 242.238678 302.100769 248.826431 293.299744 253.247864 287.749817 C 257.669281 282.19989 265.583008 272.95752 270.833893 267.211243 C 276.084778 261.464905 285.582764 252.038086 291.940491 246.262756 C 298.298218 240.487427 309.871735 230.978149 317.659424 225.131104 C 325.447113 219.283997 336.472107 211.590942 342.159424 208.0354 C 347.846741 204.479919 358.575012 198.426819 366 194.584106 C 373.424988 190.741455 383.924164 185.67218 389.331482 183.319092 C 394.73877 180.966003 405.088776 176.977783 412.331482 174.45636 C 419.574158 171.934937 431.350006 168.340454 438.5 166.468689 C 445.649994 164.596924 457.656494 161.936951 465.181061 160.557739 C 472.705658 159.178528 485.080658 157.476318 492.681061 156.775024 C 500.281494 156.073792 517.75 155.5 531.5 155.5 C 545.622253 155.5 561.721313 156.078735 568.5 156.830139 C 575.099976 157.561707 585.674988 159.048889 592 160.13501 C 598.325012 161.22113 608.900024 163.397705 615.5 164.971924 C 622.099976 166.546082 633.629944 169.852356 641.122131 172.319214 C 648.614319 174.786011 660.31427 179.142517 667.122131 182.000244 C 673.929932 184.857971 684.224976 189.612976 690 192.566956 C 695.775024 195.520874 705.393921 200.882507 711.375366 204.481689 C 717.356873 208.080872 726.356873 213.906189 731.375366 217.42688 C 736.393921 220.94751 744.775024 227.260681 750 231.456116 C 755.224976 235.65155 764.199524 243.452759 769.943298 248.792114 C 775.687134 254.13147 785.306824 264.125 791.320313 271 C 797.333862 277.875 806.074463 288.5849 810.743896 294.799805 C 815.41333 301.014648 819.068665 306.252075 818.866882 306.438538 C 818.6651 306.625 814.450012 303.888855 809.5 300.358276 C 804.549988 296.827759 795.677612 291.033203 789.78363 287.481567 C 783.889587 283.929871 774.086487 278.518066 767.998962 275.455261 C 761.911377 272.392456 752.33374 267.925293 746.715332 265.528198 C 741.096924 263.131104 731.325012 259.390259 725 257.215149 C 718.674988 255.0401 707.200012 251.648743 699.5 249.678711 C 691.799988 247.70874 680.099976 245.173523 673.5 244.044861 C 666.900024 242.916199 655.200012 241.47052 647.5 240.832214 C 638.914856 240.120544 625.377747 239.907593 612.5 240.281677 C 600.950012 240.617249 586.972351 241.568115 581.438599 242.394836 C 575.904785 243.221558 566.67981 244.868469 560.938599 246.054688 C 555.197388 247.240906 545.304932 249.718262 538.955383 251.559875 C 532.605896 253.401428 521.580872 257.237366 514.455383 260.084167 C 507.329926 262.930908 496.100006 267.95929 489.5 271.258301 C 482.899994 274.557312 472.774994 280.197754 467 283.792542 C 461.225006 287.387329 451.520599 294.043335 445.434662 298.583679 C 439.348724 303.124023 429.898743 310.856262 424.434662 315.766418 C 418.970612 320.676575 411.08374 328.475342 406.908295 333.096985 C 402.732849 337.718628 396.431122 345.099976 392.904449 349.5 C 389.377777 353.900024 383.298645 362.224976 379.395294 368 C 375.491974 373.775024 369.539215 383.450012 366.166962 389.5 C 362.794708 395.549988 357.744568 405.674988 354.944397 412 C 352.144257 418.325012 348.061493 428.674988 345.871613 435 C 343.681732 441.325012 340.575348 451.674988 338.968567 458 C 337.361816 464.325012 335.147491 474.76825 334.047882 481.207214 C 332.948273 487.646179 331.588043 497.771179 331.025146 503.707214 C 330.462219 509.64325 330.001282 522.409302 330.000824 532.076294 C 330.000366 541.743286 330.485901 554.568298 331.079742 560.576294 C 331.673615 566.584351 333.034241 576.674988 334.103333 583 C 335.172455 589.325012 337.358948 599.674988 338.96228 606 C 340.565582 612.325012 343.962006 623.575012 346.509918 631 C 349.0578 638.424988 355.106232 652.599976 359.950836 662.5 C 365.506897 673.853882 372.47937 686.038452 378.834686 695.5 C 384.37619 703.75 392.697937 715 397.327423 720.5 C 401.95694 726 411.539642 736.138672 418.622345 743.030457 C 425.705048 749.922241 435.774994 758.878784 441 762.93396 C 446.225006 766.989075 456.125 774.029724 463 778.579773 C 469.875 783.129883 481.155945 789.804443 488.068756 793.412292 C 494.981567 797.020081 505.377594 801.957825 511.171021 804.385071 C 516.964417 806.812256 527.508484 810.687744 534.602234 812.997192 C 541.696045 815.306641 553.021729 818.467346 559.770508 820.020996 C 566.519287 821.574585 577.994263 823.667969 585.270508 824.672852 C 595.116211 826.032654 604.766479 826.5 623 826.5 C 636.474976 826.5 652.633362 825.919434 658.907471 825.209839 C 665.18158 824.500244 675.031067 823.009521 680.795288 821.897156 C 686.559448 820.78479 696.578979 818.348145 703.060913 816.482483 C 709.542908 814.61676 719.196777 811.460815 724.513977 809.469299 C 729.831238 807.477783 734.332458 805.999146 734.516785 806.183411 C 734.70105 806.367737 729.91925 809.609741 723.890503 813.387878 C 717.861755 817.166016 707.208069 823.211304 700.215698 826.821777 C 693.223328 830.432251 682.639038 835.563354 676.695068 838.224243 C 670.751099 840.885132 659.380493 845.280334 651.427063 847.991333 C 643.473633 850.702332 630.780457 854.475098 623.220093 856.375183 C 615.659668 858.275269 602.504761 860.983154 593.986938 862.3927 C 585.469116 863.802246 573.839844 865.415527 568.144043 865.977783 C 562.448242 866.539978 546.698242 866.949951 533.144043 866.888733 Z M 622.698792 766.873535 C 612.139465 766.803955 600.393494 766.348389 596.59668 765.861206 C 592.799805 765.374023 585.332886 764.086792 580.003418 763.000732 C 574.674011 761.914673 566.315125 759.86731 561.428162 758.451172 C 556.541199 757.034912 547.808167 754.103088 542.021362 751.935913 C 536.234619 749.768677 527.224976 745.844421 522 743.215271 C 516.775024 740.586182 508.742004 736.199646 504.148895 733.467529 C 499.555786 730.735352 491.005768 724.905762 485.148895 720.512695 C 479.291992 716.119751 469.141479 707.344727 462.592163 701.012695 C 456.042847 694.680725 447.074249 685 442.661896 679.5 C 438.249573 674 431.536713 664.775024 427.744446 659 C 423.952179 653.224976 418.191925 643.099976 414.943878 636.5 C 411.695862 629.900024 407.231171 619.660217 405.022369 613.744995 C 402.813568 607.829712 399.654083 597.704712 398.001282 591.244995 C 396.34848 584.785217 394.209564 574.125732 393.248108 567.557251 C 392.006256 559.072998 391.5 549.35498 391.5 534 C 391.5 518.558838 392.007294 508.886292 393.276154 500.133789 C 394.253021 493.395264 396.602905 481.831909 398.498108 474.437317 C 400.393311 467.042786 403.822449 456.15686 406.118439 450.246338 C 408.414398 444.335876 412.661255 434.775024 415.555878 429 C 418.45047 423.224976 423.255829 414.639404 426.234406 409.920837 C 429.212982 405.202332 434.522522 397.552307 438.033386 392.920837 C 441.54425 388.289368 449.160492 379.597595 454.958405 373.605713 C 460.756287 367.613892 469.325012 359.510498 474 355.598267 C 478.674988 351.685974 486.100006 345.958191 490.5 342.869812 C 494.899994 339.781494 503.225006 334.543823 509 331.230713 C 514.775024 327.917542 524.156128 323.116943 529.846924 320.562683 C 535.537659 318.008362 545.437683 314.181458 551.846924 312.05835 C 558.256104 309.935303 568.704468 307.034119 575.065491 305.611389 C 581.426514 304.18866 592.448792 302.344055 599.559387 301.512329 C 606.669983 300.680542 617.955322 300 624.637939 300 C 631.320496 300 641.448242 300.46051 647.144043 301.023315 C 652.839844 301.586121 662.101563 302.943298 667.725647 304.039307 C 673.349792 305.135315 683.249756 307.559326 689.725647 309.426025 C 696.201538 311.292664 706.859558 315.09375 713.410156 317.872742 C 719.960754 320.651794 729.860779 325.468872 735.410156 328.577332 C 740.959595 331.685791 749.099976 336.76123 753.5 339.856018 C 757.900024 342.950806 764.650024 348.157837 768.5 351.427185 C 772.349976 354.696533 778.82019 360.775391 782.878235 364.93573 C 786.936279 369.096069 793.066528 376.099976 796.501038 380.5 C 799.935486 384.900024 805.380798 392.549988 808.601685 397.5 C 811.822571 402.450012 815.792664 408.962341 817.424194 411.971802 C 820.390503 417.443665 820.390503 417.443665 817.345581 415.471802 C 815.670837 414.387329 809.231018 410.174805 803.034851 406.110718 C 796.838623 402.046631 786.533508 396.117676 780.134521 392.935181 C 773.735535 389.752747 763.775024 385.508667 758 383.503906 C 752.224976 381.499084 742.775024 378.794067 737 377.492676 C 731.224976 376.191284 722.130249 374.648071 716.789429 374.063293 C 711.448608 373.478455 703.348572 373.003662 698.789429 373.008179 C 694.230225 373.012695 686.450012 373.468933 681.5 374.022095 C 676.549988 374.575195 667.775024 375.969727 662 377.121094 C 656.224976 378.2724 646.947632 380.702698 641.383667 382.521729 C 635.819702 384.340759 626.594666 388.044739 620.883667 390.752747 C 615.172668 393.460693 605.775024 398.874756 600 402.783936 C 594.224976 406.693054 585.817322 413.073059 581.316284 416.961731 C 576.815186 420.850342 569.645813 428.187256 565.384277 433.265991 C 561.122742 438.344666 554.973816 446.549988 551.719971 451.5 C 548.466187 456.450012 543.825867 464.61676 541.408264 469.648315 C 538.990601 474.679871 535.45459 483.454895 533.550415 489.148315 C 531.64624 494.841736 529.055908 504.674988 527.794128 511 C 525.912842 520.430542 525.5 525.739197 525.5 540.5 C 525.5 550.400024 526.104919 562.699707 526.844238 567.832642 C 527.583557 572.965576 529.292114 581.290527 530.641052 586.332642 C 531.98999 591.374695 534.869324 599.926819 537.039551 605.337402 C 539.209839 610.747925 543.428101 619.522949 546.413452 624.837402 C 549.398865 630.151855 554.660034 638.325012 558.105042 643 C 561.549988 647.674988 569.123169 656.274414 574.934326 662.109741 C 580.745422 667.945129 589.513794 675.671509 594.419495 679.279541 C 599.325195 682.887451 607.733826 688.347473 613.105225 691.412842 C 618.476685 694.478149 627.786011 698.998962 633.792664 701.459106 C 639.799316 703.919312 649.05249 707.059448 654.355225 708.437195 C 659.657959 709.814941 667.934814 711.5177 672.748291 712.221069 C 677.561707 712.9245 689.632935 713.5 699.573181 713.5 C 712.531616 713.5 720.738647 712.977539 728.573181 711.65387 C 734.582947 710.63855 744.544617 708.279907 750.710266 706.412476 C 756.875916 704.545105 766.550964 700.988892 772.210266 698.509888 C 777.869629 696.030762 786.968567 691.532959 792.430176 688.514709 C 797.891724 685.49646 802.541077 683.207764 802.762085 683.428711 C 802.983032 683.649658 796.489441 690.545959 788.331909 698.753723 C 779.991821 707.145203 768.797607 717.171265 762.756348 721.6604 C 756.84729 726.051392 747.353455 732.419312 741.658875 735.811523 C 735.964294 739.203674 726.711975 744.015564 721.098083 746.504639 C 715.484253 748.993652 705.784851 752.790894 699.543823 754.942871 C 693.302795 757.094849 683.089844 759.996338 676.848267 761.390625 C 670.60675 762.784912 660.189453 764.617432 653.698792 765.46283 C 646.18811 766.441162 634.91748 766.953979 622.698792 766.873535 Z M 700.342896 657.90979 C 693.279297 657.860107 684.230713 657.226868 680.234863 656.502563 C 676.239014 655.778198 669.909729 654.256165 666.1698 653.120239 C 662.429871 651.984253 656.02417 649.517761 651.934937 647.63916 C 647.845764 645.76062 641.026978 641.941772 636.782104 639.152954 C 632.537292 636.364136 625.519104 630.695313 621.186218 626.555664 C 616.853271 622.416016 611.326355 616.318115 608.904114 613.004761 C 606.481812 609.691406 602.838318 604.245911 600.807312 600.903687 C 598.776306 597.561523 595.773621 591.603455 594.134583 587.663513 C 592.495605 583.723572 590.234863 576.985229 589.110718 572.689392 C 587.986633 568.393555 586.519836 560.172363 585.851196 554.420044 C 584.905457 546.284424 584.898987 541.432495 585.822021 532.577515 C 586.47467 526.316528 588.161621 517.215271 589.570801 512.352417 C 590.97998 507.489624 593.872375 499.799194 595.998291 495.262573 C 598.124207 490.725952 601.905273 483.97113 604.400635 480.251892 C 606.895996 476.532654 611.905396 470.237915 615.532593 466.263611 C 619.159851 462.289368 625.996643 456.133911 630.725464 452.5849 C 635.454285 449.035828 643.413086 444.118286 648.411682 441.656982 C 653.410278 439.195679 661.325012 435.985107 666 434.5224 C 670.674988 433.059631 678.099976 431.331238 682.5 430.681458 C 686.900024 430.031616 694.775024 429.5 700 429.5 C 705.224976 429.5 713.435486 430.075073 718.245483 430.778015 C 723.055481 431.480896 731.092163 433.396179 736.104797 435.034241 C 741.117432 436.672302 748.832947 439.892883 753.250366 442.191101 C 757.667786 444.489258 764.031128 448.362427 767.391052 450.798096 C 770.750977 453.233765 776.582214 458.213135 780.349304 461.863281 C 784.116455 465.513489 789.441833 471.424988 792.183594 475 C 794.925293 478.575012 798.782532 484.380737 800.755188 487.901672 C 802.727783 491.422607 805.621094 497.447083 807.184753 501.289368 C 808.748413 505.131653 810.898438 511.700867 811.962646 515.887695 C 813.026855 520.074463 814.375854 528.238647 814.960449 534.030273 C 815.705078 541.407227 815.710083 547.613281 814.977173 554.755127 C 814.401794 560.362183 813.073547 568.30249 812.025513 572.40033 C 810.977478 576.498169 808.747498 583.146912 807.070068 587.175415 C 805.392578 591.203979 802.253784 597.522095 800.09491 601.215698 C 797.936035 604.909302 794.145996 610.534302 791.672546 613.715698 C 789.199158 616.897095 784.323486 622.261108 780.837708 625.635742 C 777.35199 629.010376 772.326477 633.399048 769.669922 635.388428 C 767.013367 637.377686 761.838379 640.746582 758.169922 642.874756 C 754.501465 645.00293 747.450012 648.349609 742.5 650.311768 C 737.549988 652.273987 728.929321 654.806519 723.342896 655.939697 C 715.976257 657.43396 709.657532 657.97522 700.342896 657.90979 Z"/>
    </g>
</svg>
