<?xml version="1.0" encoding="UTF-8"?>
<!-- Generated by Pixelmator Pro 3.7.1 -->
<svg width="1282" height="195" viewBox="0 0 1282 195" xmlns="http://www.w3.org/2000/svg">
    <path id="Open-Context-Protocol" fill="#ffffff" fill-rule="evenodd" stroke="none" d="M 1246.478027 64.884003 L 1257.19397 64.884003 L 1257.19397 132 L 1246.478027 132 Z M 1209.911987 133.31601 C 1206.026611 133.31601 1202.564331 132.673676 1199.525024 131.389008 C 1196.485596 130.104324 1193.91626 128.334015 1191.817017 126.078003 C 1189.717651 123.821991 1188.119629 121.12735 1187.022949 117.994003 C 1185.92627 114.860649 1185.37793 111.414017 1185.37793 107.653999 C 1185.37793 103.95665 1185.92627 100.541351 1187.022949 97.408005 C 1188.119629 94.274651 1189.717651 91.580009 1191.817017 89.323997 C 1193.91626 87.067986 1196.485596 85.297676 1199.525024 84.013 C 1202.564331 82.728325 1206.026611 82.085999 1209.911987 82.085999 C 1213.797363 82.085999 1217.259644 82.728325 1220.299072 84.013 C 1223.338379 85.297676 1225.907715 87.067986 1228.00708 89.323997 C 1230.106323 91.580009 1231.704346 94.274651 1232.801025 97.408005 C 1233.897705 100.541351 1234.446045 103.95665 1234.446045 107.653999 C 1234.446045 111.414017 1233.897705 114.860649 1232.801025 117.994003 C 1231.704346 121.12735 1230.106323 123.821991 1228.00708 126.078003 C 1225.907715 128.334015 1223.338379 130.104324 1220.299072 131.389008 C 1217.259644 132.673676 1213.797363 133.31601 1209.911987 133.31601 Z M 1209.911987 124.856003 C 1212.293335 124.856003 1214.361328 124.354675 1216.115967 123.351997 C 1217.870605 122.349327 1219.312012 121.03334 1220.439941 119.403999 C 1221.567993 117.774658 1222.398315 115.941681 1222.93103 113.904999 C 1223.463623 111.868324 1223.72998 109.784676 1223.72998 107.653999 C 1223.72998 105.585991 1223.463623 103.518005 1222.93103 101.449997 C 1222.398315 99.381989 1221.567993 97.549011 1220.439941 95.951004 C 1219.312012 94.352997 1217.870605 93.052673 1216.115967 92.050003 C 1214.361328 91.047333 1212.293335 90.545998 1209.911987 90.545998 C 1207.53064 90.545998 1205.462646 91.047333 1203.708008 92.050003 C 1201.953369 93.052673 1200.511963 94.352997 1199.384033 95.951004 C 1198.255981 97.549011 1197.425659 99.381989 1196.893066 101.449997 C 1196.360352 103.518005 1196.093994 105.585991 1196.093994 107.653999 C 1196.093994 109.784676 1196.360352 111.868324 1196.893066 113.904999 C 1197.425659 115.941681 1198.255981 117.774658 1199.384033 119.403999 C 1200.511963 121.03334 1201.953369 122.349327 1203.708008 123.351997 C 1205.462646 124.354675 1207.53064 124.856003 1209.911987 124.856003 Z M 1165.355957 99.664001 C 1164.917358 96.655991 1163.710938 94.384338 1161.737061 92.848999 C 1159.762939 91.31366 1157.271973 90.545998 1154.263916 90.545998 C 1152.885254 90.545998 1151.412598 90.780998 1149.845947 91.250999 C 1148.279297 91.721001 1146.838013 92.598328 1145.521973 93.882996 C 1144.206055 95.167671 1143.109375 96.953659 1142.231934 99.240997 C 1141.354736 101.528343 1140.916016 104.520645 1140.916016 108.218002 C 1140.916016 110.223343 1141.151001 112.228653 1141.620972 114.234001 C 1142.091064 116.239342 1142.843018 118.02533 1143.876953 119.591995 C 1144.911011 121.158676 1146.242676 122.427658 1147.87207 123.399002 C 1149.501343 124.370338 1151.475342 124.856003 1153.793945 124.856003 C 1156.927368 124.856003 1159.512329 123.884674 1161.549072 121.942001 C 1163.585693 119.999329 1164.854736 117.273346 1165.355957 113.764 L 1176.072021 113.764 C 1175.069336 120.093369 1172.672363 124.934319 1168.880981 128.287003 C 1165.0896 131.639679 1160.060669 133.31601 1153.793945 133.31601 C 1149.971313 133.31601 1146.603027 132.673676 1143.688965 131.389008 C 1140.774902 130.104324 1138.31543 128.34967 1136.310059 126.125 C 1134.304688 123.900322 1132.785034 121.252686 1131.750977 118.181999 C 1130.717041 115.111313 1130.199951 111.790016 1130.199951 108.218002 C 1130.199951 104.583313 1130.701416 101.168015 1131.703979 97.972 C 1132.706665 94.775986 1134.210693 92.003014 1136.216064 89.653 C 1138.221313 87.302986 1140.712402 85.454338 1143.688965 84.107002 C 1146.665771 82.759659 1150.159302 82.085999 1154.169922 82.085999 C 1156.98999 82.085999 1159.668945 82.446327 1162.207031 83.167 C 1164.744995 83.887672 1167.000977 84.968658 1168.974976 86.410004 C 1170.948975 87.851341 1172.562744 89.668655 1173.815918 91.862 C 1175.069336 94.055344 1175.821289 96.655991 1176.072021 99.664001 Z M 1096.265991 133.31601 C 1092.380615 133.31601 1088.918335 132.673676 1085.879028 131.389008 C 1082.8396 130.104324 1080.270264 128.334015 1078.171021 126.078003 C 1076.071655 123.821991 1074.473633 121.12735 1073.376953 117.994003 C 1072.280273 114.860649 1071.731934 111.414017 1071.731934 107.653999 C 1071.731934 103.95665 1072.280273 100.541351 1073.376953 97.408005 C 1074.473633 94.274651 1076.071655 91.580009 1078.171021 89.323997 C 1080.270264 87.067986 1082.8396 85.297676 1085.879028 84.013 C 1088.918335 82.728325 1092.380615 82.085999 1096.265991 82.085999 C 1100.151367 82.085999 1103.613647 82.728325 1106.653076 84.013 C 1109.692383 85.297676 1112.261719 87.067986 1114.361084 89.323997 C 1116.460327 91.580009 1118.05835 94.274651 1119.155029 97.408005 C 1120.251709 100.541351 1120.800049 103.95665 1120.800049 107.653999 C 1120.800049 111.414017 1120.251709 114.860649 1119.155029 117.994003 C 1118.05835 121.12735 1116.460327 123.821991 1114.361084 126.078003 C 1112.261719 128.334015 1109.692383 130.104324 1106.653076 131.389008 C 1103.613647 132.673676 1100.151367 133.31601 1096.265991 133.31601 Z M 1096.265991 124.856003 C 1098.647339 124.856003 1100.715332 124.354675 1102.469971 123.351997 C 1104.224609 122.349327 1105.666016 121.03334 1106.793945 119.403999 C 1107.921997 117.774658 1108.752319 115.941681 1109.284912 113.904999 C 1109.817627 111.868324 1110.083984 109.784676 1110.083984 107.653999 C 1110.083984 105.585991 1109.817627 103.518005 1109.284912 101.449997 C 1108.752319 99.381989 1107.921997 97.549011 1106.793945 95.951004 C 1105.666016 94.352997 1104.224609 93.052673 1102.469971 92.050003 C 1100.715332 91.047333 1098.647339 90.545998 1096.265991 90.545998 C 1093.884644 90.545998 1091.81665 91.047333 1090.062012 92.050003 C 1088.307373 93.052673 1086.865967 94.352997 1085.738037 95.951004 C 1084.609985 97.549011 1083.779663 99.381989 1083.24707 101.449997 C 1082.714355 103.518005 1082.447998 105.585991 1082.447998 107.653999 C 1082.447998 109.784676 1082.714355 111.868324 1083.24707 113.904999 C 1083.779663 115.941681 1084.609985 117.774658 1085.738037 119.403999 C 1086.865967 121.03334 1088.307373 122.349327 1090.062012 123.351997 C 1091.81665 124.354675 1093.884644 124.856003 1096.265991 124.856003 Z M 1034.978027 83.402 L 1043.062012 83.402 L 1043.062012 68.832001 L 1053.778076 68.832001 L 1053.778076 83.402 L 1063.459961 83.402 L 1063.459961 91.391998 L 1053.778076 91.391998 L 1053.778076 117.335999 C 1053.778076 118.464005 1053.824951 119.435333 1053.918945 120.25 C 1054.012939 121.064667 1054.232422 121.753998 1054.577026 122.318001 C 1054.921631 122.882004 1055.438721 123.305 1056.12793 123.586998 C 1056.817383 123.869003 1057.757324 124.010002 1058.947998 124.010002 C 1059.699951 124.010002 1060.452026 123.994331 1061.203979 123.962997 C 1061.956055 123.931671 1062.708008 123.821999 1063.459961 123.634003 L 1063.459961 131.906006 C 1062.269287 132.031342 1061.109985 132.156662 1059.981934 132.281998 C 1058.854004 132.407333 1057.694702 132.470001 1056.504028 132.470001 C 1053.68396 132.470001 1051.412354 132.203674 1049.688965 131.67099 C 1047.965576 131.138336 1046.618408 130.355011 1045.646973 129.320999 C 1044.675659 128.286987 1044.017578 126.986679 1043.672974 125.419998 C 1043.328369 123.853325 1043.124756 122.067345 1043.062012 120.061996 L 1043.062012 91.391998 L 1034.978027 91.391998 Z M 1003.58197 133.31601 C 999.696655 133.31601 996.234375 132.673676 993.195007 131.389008 C 990.15564 130.104324 987.586365 128.334015 985.487 126.078003 C 983.387634 123.821991 981.789673 121.12735 980.692993 117.994003 C 979.596313 114.860649 979.047974 111.414017 979.047974 107.653999 C 979.047974 103.95665 979.596313 100.541351 980.692993 97.408005 C 981.789673 94.274651 983.387634 91.580009 985.487 89.323997 C 987.586365 87.067986 990.15564 85.297676 993.195007 84.013 C 996.234375 82.728325 999.696655 82.085999 1003.58197 82.085999 C 1007.467346 82.085999 1010.929626 82.728325 1013.968994 84.013 C 1017.008362 85.297676 1019.577637 87.067986 1021.677002 89.323997 C 1023.776367 91.580009 1025.374268 94.274651 1026.470947 97.408005 C 1027.567627 100.541351 1028.115967 103.95665 1028.115967 107.653999 C 1028.115967 111.414017 1027.567627 114.860649 1026.470947 117.994003 C 1025.374268 121.12735 1023.776367 123.821991 1021.677002 126.078003 C 1019.577637 128.334015 1017.008362 130.104324 1013.968994 131.389008 C 1010.929626 132.673676 1007.467346 133.31601 1003.58197 133.31601 Z M 1003.58197 124.856003 C 1005.963318 124.856003 1008.031311 124.354675 1009.786011 123.351997 C 1011.540649 122.349327 1012.981995 121.03334 1014.109985 119.403999 C 1015.237976 117.774658 1016.068359 115.941681 1016.601013 113.904999 C 1017.133667 111.868324 1017.400024 109.784676 1017.400024 107.653999 C 1017.400024 105.585991 1017.133667 103.518005 1016.601013 101.449997 C 1016.068359 99.381989 1015.237976 97.549011 1014.109985 95.951004 C 1012.981995 94.352997 1011.540649 93.052673 1009.786011 92.050003 C 1008.031311 91.047333 1005.963318 90.545998 1003.58197 90.545998 C 1001.200684 90.545998 999.13269 91.047333 997.377991 92.050003 C 995.623352 93.052673 994.182007 94.352997 993.054016 95.951004 C 991.925964 97.549011 991.095642 99.381989 990.562988 101.449997 C 990.030334 103.518005 989.763977 105.585991 989.763977 107.653999 C 989.763977 109.784676 990.030334 111.868324 990.562988 113.904999 C 991.095642 115.941681 991.925964 117.774658 993.054016 119.403999 C 994.182007 121.03334 995.623352 122.349327 997.377991 123.351997 C 999.13269 124.354675 1001.200684 124.856003 1003.58197 124.856003 Z M 947.088013 83.402 L 957.145996 83.402 L 957.145996 92.802002 L 957.333984 92.802002 C 957.647339 91.485992 958.258301 90.20134 959.166992 88.947998 C 960.075684 87.694664 961.172302 86.551003 962.45697 85.516998 C 963.741699 84.482994 965.167297 83.652672 966.734009 83.026001 C 968.300659 82.39933 969.898682 82.085999 971.528015 82.085999 C 972.781311 82.085999 973.643005 82.117332 974.112976 82.18 C 974.583008 82.242668 975.068665 82.305336 975.570007 82.367996 L 975.570007 92.708 C 974.817993 92.582664 974.050354 92.473 973.267029 92.378998 C 972.483643 92.285004 971.716003 92.237999 970.963989 92.237999 C 969.146667 92.237999 967.439026 92.598328 965.841003 93.319 C 964.242981 94.039673 962.848694 95.104996 961.65802 96.514999 C 960.467346 97.925003 959.527344 99.663986 958.838013 101.731995 C 958.148682 103.800011 957.804016 106.18132 957.804016 108.875999 L 957.804016 132 L 947.088013 132 Z M 883.073975 64.884003 L 912.684021 64.884003 C 917.446716 64.884003 921.33197 65.573334 924.340027 66.951996 C 927.348022 68.330673 929.666687 70.053993 931.296021 72.122002 C 932.925354 74.19001 934.037659 76.445992 934.632996 78.889999 C 935.228333 81.334015 935.526001 83.589989 935.526001 85.657997 C 935.526001 87.726013 935.228333 89.966324 934.632996 92.378998 C 934.037659 94.791679 932.925354 97.03199 931.296021 99.099998 C 929.666687 101.168015 927.348022 102.875656 924.340027 104.223 C 921.33197 105.570343 917.446716 106.244003 912.684021 106.244003 L 894.823975 106.244003 L 894.823975 132 L 883.073975 132 Z M 894.823975 96.655998 L 912.026001 96.655998 C 913.34198 96.655998 914.689331 96.468002 916.067993 96.091995 C 917.446655 95.716003 918.715637 95.105003 919.875 94.259003 C 921.034363 93.412994 921.974304 92.285004 922.695007 90.875 C 923.415649 89.464996 923.776001 87.694679 923.776001 85.564003 C 923.776001 83.370659 923.462646 81.553337 922.835999 80.112 C 922.209351 78.670662 921.363342 77.527 920.297974 76.681 C 919.232666 75.834999 918.010681 75.255333 916.632019 74.942001 C 915.253357 74.628662 913.780701 74.472 912.213989 74.472 L 894.823975 74.472 Z M 813.607971 83.402 L 821.692017 83.402 L 821.692017 68.832001 L 832.40802 68.832001 L 832.40802 83.402 L 842.090027 83.402 L 842.090027 91.391998 L 832.40802 91.391998 L 832.40802 117.335999 C 832.40802 118.464005 832.455017 119.435333 832.549011 120.25 C 832.643005 121.064667 832.862305 121.753998 833.20697 122.318001 C 833.551697 122.882004 834.068665 123.305 834.757996 123.586998 C 835.447327 123.869003 836.387329 124.010002 837.578003 124.010002 C 838.330017 124.010002 839.08197 123.994331 839.833984 123.962997 C 840.585999 123.931671 841.338013 123.821999 842.090027 123.634003 L 842.090027 131.906006 C 840.899353 132.031342 839.73999 132.156662 838.612 132.281998 C 837.484009 132.407333 836.324646 132.470001 835.133972 132.470001 C 832.313965 132.470001 830.042358 132.203674 828.31897 131.67099 C 826.595642 131.138336 825.248352 130.355011 824.276978 129.320999 C 823.305664 128.286987 822.647644 126.986679 822.302979 125.419998 C 821.958313 123.853325 821.754639 122.067345 821.692017 120.061996 L 821.692017 91.391998 L 813.607971 91.391998 Z M 778.263977 106.431999 L 761.437988 83.402 L 774.409973 83.402 L 784.562012 98.348 L 795.184021 83.402 L 807.59198 83.402 L 791.047974 105.867996 L 809.659973 132 L 796.781982 132 L 784.468018 114.046005 L 772.530029 132 L 759.934021 132 Z M 743.484009 103.423996 C 743.358643 101.731995 742.998352 100.102676 742.403015 98.535995 C 741.807678 96.96933 740.992981 95.606339 739.958984 94.446999 C 738.924988 93.287659 737.671692 92.347672 736.198975 91.626999 C 734.726318 90.906326 733.08136 90.545998 731.263977 90.545998 C 729.383972 90.545998 727.676331 90.875 726.140991 91.533005 C 724.605652 92.191002 723.289673 93.099655 722.192993 94.259003 C 721.096313 95.418335 720.218994 96.781326 719.561035 98.348 C 718.902954 99.914673 718.542664 101.606659 718.47998 103.423996 Z M 718.47998 110.473999 C 718.47998 112.354004 718.746338 114.171326 719.278992 115.925995 C 719.811646 117.680679 720.610657 119.215988 721.676025 120.531998 C 722.741333 121.848007 724.088684 122.897659 725.718018 123.681 C 727.347351 124.46434 729.289978 124.856003 731.546021 124.856003 C 734.679321 124.856003 737.20166 124.182343 739.112976 122.834999 C 741.024353 121.487656 742.450012 119.466675 743.390015 116.772003 L 753.541992 116.772003 C 752.978027 119.404015 752.006653 121.75399 750.627991 123.821999 C 749.249329 125.890015 747.588684 127.62899 745.645996 129.039001 C 743.703308 130.449005 741.525696 131.514328 739.112976 132.235001 C 736.700317 132.955673 734.17804 133.31601 731.546021 133.31601 C 727.723328 133.31601 724.339355 132.689331 721.393982 131.436005 C 718.448608 130.182663 715.957642 128.428009 713.921021 126.171997 C 711.884338 123.915985 710.348999 121.221344 709.315002 118.087997 C 708.281006 114.954651 707.764038 111.508018 707.764038 107.748001 C 707.764038 104.301315 708.312317 101.027016 709.408997 97.925003 C 710.505676 94.822983 712.072327 92.097015 714.109009 89.747002 C 716.145691 87.396988 718.605347 85.532677 721.487976 84.153999 C 724.370667 82.77533 727.629333 82.085999 731.263977 82.085999 C 735.08667 82.085999 738.517639 82.884995 741.557007 84.483002 C 744.596375 86.081009 747.118652 88.195984 749.124023 90.828003 C 751.129333 93.460014 752.586304 96.48365 753.494995 99.899002 C 754.403687 103.314346 754.638672 106.83931 754.200012 110.473999 Z M 671.104004 83.402 L 679.187988 83.402 L 679.187988 68.832001 L 689.903992 68.832001 L 689.903992 83.402 L 699.585999 83.402 L 699.585999 91.391998 L 689.903992 91.391998 L 689.903992 117.335999 C 689.903992 118.464005 689.950989 119.435333 690.045044 120.25 C 690.139038 121.064667 690.358337 121.753998 690.703003 122.318001 C 691.047668 122.882004 691.564697 123.305 692.254028 123.586998 C 692.943359 123.869003 693.883301 124.010002 695.073975 124.010002 C 695.825989 124.010002 696.578003 123.994331 697.329956 123.962997 C 698.082031 123.931671 698.833984 123.821999 699.585999 123.634003 L 699.585999 131.906006 C 698.395325 132.031342 697.235962 132.156662 696.108032 132.281998 C 694.97998 132.407333 693.820679 132.470001 692.630005 132.470001 C 689.809998 132.470001 687.53833 132.203674 685.815002 131.67099 C 684.091675 131.138336 682.744324 130.355011 681.77301 129.320999 C 680.801636 128.286987 680.143677 126.986679 679.799011 125.419998 C 679.454346 123.853325 679.250671 122.067345 679.187988 120.061996 L 679.187988 91.391998 L 671.104004 91.391998 Z M 619.216003 83.402 L 629.368042 83.402 L 629.368042 90.545998 L 629.55603 90.734001 C 631.185303 88.039322 633.315979 85.924339 635.947998 84.389 C 638.580017 82.853661 641.494019 82.085999 644.690002 82.085999 C 650.016724 82.085999 654.215332 83.464653 657.286011 86.222 C 660.356689 88.979347 661.891968 93.115311 661.891968 98.630005 L 661.891968 132 L 651.176025 132 L 651.176025 101.449997 C 651.050659 97.627319 650.235962 94.85434 648.731995 93.130997 C 647.228027 91.407654 644.878052 90.545998 641.682007 90.545998 C 639.864624 90.545998 638.235352 90.875 636.794006 91.533005 C 635.352661 92.191002 634.130676 93.099655 633.127991 94.259003 C 632.125366 95.418335 631.342041 96.781326 630.778015 98.348 C 630.213989 99.914673 629.932007 101.575325 629.932007 103.330002 L 629.932007 132 L 619.216003 132 Z M 582.932007 133.31601 C 579.046631 133.31601 575.584351 132.673676 572.545044 131.389008 C 569.505615 130.104324 566.93634 128.334015 564.837036 126.078003 C 562.737671 123.821991 561.139648 121.12735 560.042969 117.994003 C 558.946289 114.860649 558.39801 111.414017 558.39801 107.653999 C 558.39801 103.95665 558.946289 100.541351 560.042969 97.408005 C 561.139648 94.274651 562.737671 91.580009 564.837036 89.323997 C 566.93634 87.067986 569.505615 85.297676 572.545044 84.013 C 575.584351 82.728325 579.046631 82.085999 582.932007 82.085999 C 586.817383 82.085999 590.279663 82.728325 593.31897 84.013 C 596.358337 85.297676 598.927612 87.067986 601.026978 89.323997 C 603.126343 91.580009 604.724365 94.274651 605.821045 97.408005 C 606.917664 100.541351 607.466003 103.95665 607.466003 107.653999 C 607.466003 111.414017 606.917664 114.860649 605.821045 117.994003 C 604.724365 121.12735 603.126343 123.821991 601.026978 126.078003 C 598.927612 128.334015 596.358337 130.104324 593.31897 131.389008 C 590.279663 132.673676 586.817383 133.31601 582.932007 133.31601 Z M 582.932007 124.856003 C 585.313354 124.856003 587.381348 124.354675 589.135986 123.351997 C 590.890686 122.349327 592.332031 121.03334 593.459961 119.403999 C 594.588013 117.774658 595.418335 115.941681 595.950989 113.904999 C 596.483643 111.868324 596.75 109.784676 596.75 107.653999 C 596.75 105.585991 596.483643 103.518005 595.950989 101.449997 C 595.418335 99.381989 594.588013 97.549011 593.459961 95.951004 C 592.332031 94.352997 590.890686 93.052673 589.135986 92.050003 C 587.381348 91.047333 585.313354 90.545998 582.932007 90.545998 C 580.550659 90.545998 578.482666 91.047333 576.728027 92.050003 C 574.973328 93.052673 573.531982 94.352997 572.403992 95.951004 C 571.276001 97.549011 570.445679 99.381989 569.912964 101.449997 C 569.380371 103.518005 569.114014 105.585991 569.114014 107.653999 C 569.114014 109.784676 569.380371 111.868324 569.912964 113.904999 C 570.445679 115.941681 571.276001 117.774658 572.403992 119.403999 C 573.531982 121.03334 574.973328 122.349327 576.728027 123.351997 C 578.482666 124.354675 580.550659 124.856003 582.932007 124.856003 Z M 536.778015 86.222 C 536.276672 84.279327 535.587341 82.49334 534.709961 80.863998 C 533.832642 79.234657 532.704712 77.824669 531.325989 76.634003 C 529.947327 75.443329 528.333679 74.519005 526.484985 73.861 C 524.636353 73.202995 522.48999 72.874001 520.046021 72.874001 C 516.473999 72.874001 513.387695 73.594658 510.786987 75.036003 C 508.18631 76.477341 506.07135 78.40432 504.441986 80.817001 C 502.812653 83.229675 501.606323 85.971321 500.822998 89.042 C 500.039673 92.112686 499.64801 95.245987 499.64801 98.442001 C 499.64801 101.638016 500.039673 104.771317 500.822998 107.841995 C 501.606323 110.912682 502.812653 113.65432 504.441986 116.067001 C 506.07135 118.479675 508.18631 120.406662 510.786987 121.848 C 513.387695 123.289337 516.473999 124.010002 520.046021 124.010002 C 522.677979 124.010002 524.996643 123.555672 527.002014 122.647003 C 529.007324 121.738327 530.730652 120.485008 532.171997 118.887001 C 533.613342 117.288994 534.741333 115.424683 535.55603 113.293999 C 536.370667 111.163322 536.90332 108.876007 537.153992 106.431999 L 548.622009 106.431999 C 548.371338 110.442688 547.509644 114.10865 546.036987 117.43 C 544.564331 120.75135 542.574707 123.618317 540.067993 126.030998 C 537.561279 128.44368 534.616028 130.307983 531.231995 131.623993 C 527.848022 132.940002 524.119385 133.597992 520.046021 133.597992 C 515.032654 133.597992 510.536377 132.673676 506.557007 130.824997 C 502.577637 128.976318 499.209351 126.454018 496.451996 123.257996 C 493.694641 120.061981 491.579681 116.333359 490.106995 112.071999 C 488.634338 107.810646 487.89801 103.267357 487.89801 98.442001 C 487.89801 93.679306 488.634338 89.167358 490.106995 84.905998 C 491.579681 80.644646 493.694641 76.916016 496.451996 73.720001 C 499.209351 70.523987 502.577637 67.986008 506.557007 66.106003 C 510.536377 64.225983 515.032654 63.286011 520.046021 63.286011 C 523.80603 63.286011 527.34668 63.802994 530.667969 64.837006 C 533.98938 65.871002 536.918945 67.374992 539.457031 69.348999 C 541.994995 71.323013 544.047363 73.719986 545.614014 76.540001 C 547.180664 79.360016 548.151978 82.587318 548.528015 86.222 Z M 404.238007 83.402 L 414.390015 83.402 L 414.390015 90.545998 L 414.578003 90.734001 C 416.207336 88.039322 418.337982 85.924339 420.970001 84.389 C 423.60202 82.853661 426.515991 82.085999 429.712006 82.085999 C 435.038696 82.085999 439.237305 83.464653 442.307983 86.222 C 445.378662 88.979347 446.914001 93.115311 446.914001 98.630005 L 446.914001 132 L 436.197998 132 L 436.197998 101.449997 C 436.072662 97.627319 435.257996 94.85434 433.753998 93.130997 C 432.25 91.407654 429.900024 90.545998 426.703979 90.545998 C 424.886658 90.545998 423.257324 90.875 421.815979 91.533005 C 420.374664 92.191002 419.152649 93.099655 418.149994 94.259003 C 417.147339 95.418335 416.364014 96.781326 415.799988 98.348 C 415.235992 99.914673 414.953979 101.575325 414.953979 103.330002 L 414.953979 132 L 404.238007 132 Z M 382.523987 103.423996 C 382.398682 101.731995 382.03833 100.102676 381.442993 98.535995 C 380.847656 96.96933 380.03302 95.606339 378.998993 94.446999 C 377.964996 93.287659 376.71167 92.347672 375.239014 91.626999 C 373.766327 90.906326 372.121338 90.545998 370.304016 90.545998 C 368.424011 90.545998 366.716339 90.875 365.181 91.533005 C 363.64566 92.191002 362.329651 93.099655 361.233002 94.259003 C 360.136322 95.418335 359.259003 96.781326 358.601013 98.348 C 357.942993 99.914673 357.582672 101.606659 357.52002 103.423996 Z M 357.52002 110.473999 C 357.52002 112.354004 357.786316 114.171326 358.319 115.925995 C 358.851685 117.680679 359.650665 119.215988 360.716003 120.531998 C 361.781342 121.848007 363.128662 122.897659 364.757996 123.681 C 366.387329 124.46434 368.329987 124.856003 370.585999 124.856003 C 373.71936 124.856003 376.241638 124.182343 378.153015 122.834999 C 380.064331 121.487656 381.48999 119.466675 382.429993 116.772003 L 392.582001 116.772003 C 392.018005 119.404015 391.046692 121.75399 389.667999 123.821999 C 388.289307 125.890015 386.628662 127.62899 384.686005 129.039001 C 382.743317 130.449005 380.565674 131.514328 378.153015 132.235001 C 375.740326 132.955673 373.218018 133.31601 370.585999 133.31601 C 366.763306 133.31601 363.379333 132.689331 360.434021 131.436005 C 357.488647 130.182663 354.997681 128.428009 352.960999 126.171997 C 350.924316 123.915985 349.389008 121.221344 348.35498 118.087997 C 347.320984 114.954651 346.804016 111.508018 346.804016 107.748001 C 346.804016 104.301315 347.352325 101.027016 348.449005 97.925003 C 349.545654 94.822983 351.112305 92.097015 353.148987 89.747002 C 355.185669 87.396988 357.645325 85.532677 360.528015 84.153999 C 363.410675 82.77533 366.669312 82.085999 370.304016 82.085999 C 374.126678 82.085999 377.557648 82.884995 380.596985 84.483002 C 383.636353 86.081009 386.158661 88.195984 388.164001 90.828003 C 390.169342 93.460014 391.626343 96.48365 392.535004 99.899002 C 393.443665 103.314346 393.67865 106.83931 393.23999 110.473999 Z M 289.182007 83.402 L 299.333984 83.402 L 299.333984 89.982002 L 299.522003 89.982002 C 301.026001 87.161987 303.125305 85.141006 305.820007 83.918999 C 308.514679 82.696991 311.42865 82.085999 314.562012 82.085999 C 318.384705 82.085999 321.721649 82.759659 324.572998 84.107002 C 327.424347 85.454338 329.789978 87.302986 331.669983 89.653 C 333.550018 92.003014 334.959991 94.744652 335.899994 97.877998 C 336.840027 101.011353 337.309998 104.363983 337.309998 107.936005 C 337.309998 111.194687 336.887024 114.359314 336.041016 117.43 C 335.195007 120.500687 333.910339 123.210991 332.187012 125.561005 C 330.463654 127.911011 328.286011 129.790985 325.653992 131.201004 C 323.021973 132.611008 319.920013 133.31601 316.347992 133.31601 C 314.781311 133.31601 313.214661 133.175003 311.64801 132.893005 C 310.081329 132.610992 308.577332 132.156677 307.135986 131.529999 C 305.694641 130.90332 304.363007 130.10434 303.140991 129.132996 C 301.919006 128.161652 300.900665 127.018005 300.085999 125.701996 L 299.89801 125.701996 L 299.89801 149.953995 L 289.182007 149.953995 Z M 326.593994 107.748001 C 326.593994 105.554657 326.312012 103.424011 325.747986 101.356003 C 325.18399 99.287994 324.338013 97.455009 323.209991 95.856995 C 322.082001 94.258987 320.671997 92.974335 318.980011 92.002998 C 317.287994 91.031662 315.345337 90.545998 313.152008 90.545998 C 308.639984 90.545998 305.240356 92.112656 302.953003 95.246002 C 300.665649 98.379349 299.522003 102.546646 299.522003 107.748001 C 299.522003 110.192017 299.819672 112.463654 300.415009 114.563004 C 301.010345 116.662338 301.90332 118.463989 303.093994 119.968002 C 304.284668 121.472008 305.710327 122.662659 307.371002 123.540001 C 309.031677 124.417336 310.958649 124.856003 313.152008 124.856003 C 315.596008 124.856003 317.664001 124.354675 319.356018 123.351997 C 321.048004 122.349327 322.442322 121.049011 323.539001 119.451004 C 324.635681 117.852997 325.419006 116.035675 325.889008 113.999001 C 326.359009 111.962326 326.593994 109.878677 326.593994 107.748001 Z M 244.720001 72.874001 C 241.14798 72.874001 238.061676 73.594658 235.460999 75.036003 C 232.860321 76.477341 230.745346 78.40432 229.115997 80.817001 C 227.486664 83.229675 226.280334 85.971321 225.496994 89.042 C 224.713669 92.112686 224.322006 95.245987 224.322006 98.442001 C 224.322006 101.638016 224.713669 104.771317 225.496994 107.841995 C 226.280334 110.912682 227.486664 113.65432 229.115997 116.067001 C 230.745346 118.479675 232.860321 120.406662 235.460999 121.848 C 238.061676 123.289337 241.14798 124.010002 244.720001 124.010002 C 248.292023 124.010002 251.378326 123.289337 253.979004 121.848 C 256.579681 120.406662 258.694672 118.479675 260.324005 116.067001 C 261.953339 113.65432 263.159668 110.912682 263.942993 107.841995 C 264.726349 104.771317 265.118011 101.638016 265.118011 98.442001 C 265.118011 95.245987 264.726349 92.112686 263.942993 89.042 C 263.159668 85.971321 261.953339 83.229675 260.324005 80.817001 C 258.694672 78.40432 256.579681 76.477341 253.979004 75.036003 C 251.378326 73.594658 248.292023 72.874001 244.720001 72.874001 Z M 244.720001 63.286011 C 249.733368 63.286011 254.229645 64.225983 258.208984 66.106003 C 262.188354 67.986008 265.556641 70.523987 268.313995 73.720001 C 271.07135 76.916016 273.18634 80.644646 274.658997 84.905998 C 276.131683 89.167358 276.867981 93.679306 276.867981 98.442001 C 276.867981 103.267357 276.131683 107.810646 274.658997 112.071999 C 273.18634 116.333359 271.07135 120.061981 268.313995 123.257996 C 265.556641 126.454018 262.188354 128.976318 258.208984 130.824997 C 254.229645 132.673676 249.733368 133.597992 244.720001 133.597992 C 239.706635 133.597992 235.210358 132.673676 231.231003 130.824997 C 227.251648 128.976318 223.883347 126.454018 221.126007 123.257996 C 218.368652 120.061981 216.253677 116.333359 214.781006 112.071999 C 213.308319 107.810646 212.572006 103.267357 212.572006 98.442001 C 212.572006 93.679306 213.308319 89.167358 214.781006 84.905998 C 216.253677 80.644646 218.368652 76.916016 221.126007 73.720001 C 223.883347 70.523987 227.251648 67.986008 231.231003 66.106003 C 235.210358 64.225983 239.706635 63.286011 244.720001 63.286011 Z"/>
    <path id="Shape-copy" fill="#ffffff" fill-rule="evenodd" stroke="none" d="M 95.915054 168.196182 C 93.209526 168.18396 89.903511 168.054718 88.568367 167.908951 C 87.233215 167.763199 85.077446 167.45137 83.777771 167.216003 C 82.478104 166.980621 80.247025 166.485992 78.819824 166.116821 C 77.392632 165.747635 75.05722 165.049133 73.63002 164.56459 C 72.202827 164.080032 70.037094 163.27359 68.817276 162.772491 C 67.597466 162.271393 65.306961 161.215881 63.727276 160.426895 C 62.147587 159.637909 59.910015 158.425064 58.75489 157.731659 C 57.59977 157.038269 55.678848 155.787811 54.486183 154.95285 C 53.293518 154.117889 51.364273 152.654785 50.198959 151.701508 C 49.033649 150.74823 46.815536 148.707581 45.26981 147.166763 C 43.724091 145.625931 41.635204 143.348328 40.627831 142.105423 C 39.620464 140.862518 38.18095 138.976227 37.428909 137.913666 C 36.676868 136.851089 35.411331 134.903839 34.6166 133.586426 C 33.821873 132.269012 32.738068 130.331024 32.208157 129.279785 C 31.67824 128.228546 30.825104 126.387177 30.312296 125.187828 C 29.799484 123.988487 28.951059 121.74968 28.426903 120.2127 C 27.902746 118.675713 27.148342 116.115746 26.750448 114.523872 C 26.352551 112.931999 25.807041 110.223717 25.538198 108.505463 C 25.269361 106.787216 24.939741 103.90361 24.805712 102.09745 C 24.653704 100.048965 24.608345 97.244278 24.685148 94.642326 C 24.752865 92.34816 24.993204 89.042679 25.219234 87.296806 C 25.445263 85.550934 25.89217 82.930092 26.212357 81.47271 C 26.532547 80.015335 27.116638 77.735367 27.510342 76.406113 C 27.904043 75.076866 28.717972 72.727844 29.319069 71.186058 C 29.920168 69.644264 30.988533 67.19976 31.693216 65.75383 C 32.397903 64.307892 33.611538 62.059296 34.390182 60.756958 C 35.168831 59.454636 36.398785 57.538727 37.123417 56.49939 C 37.848049 55.460052 39.163017 53.703308 40.04557 52.59549 C 40.92812 51.487686 42.507763 49.642838 43.555882 48.495834 C 44.603996 47.348816 46.49987 45.467148 47.768925 44.314346 C 49.037975 43.161545 51.348141 41.263428 52.902626 40.096298 C 54.457108 38.929169 56.657784 37.393585 57.793018 36.683868 C 58.928249 35.974167 61.069698 34.765915 62.551785 33.998886 C 64.033867 33.231857 66.129585 32.219986 67.208931 31.75029 C 68.288269 31.280609 70.35421 30.484528 71.799911 29.981232 C 73.245605 29.477936 75.596161 28.760437 77.023354 28.386826 C 78.450554 28.013199 80.847145 27.482254 82.349106 27.206955 C 83.851074 26.931656 86.32122 26.591873 87.838326 26.451889 C 89.355431 26.31192 92.842278 26.197388 95.586891 26.197388 C 98.4058 26.197388 101.619301 26.312912 102.972382 26.462891 C 104.289787 26.608917 106.400642 26.905777 107.663162 27.122574 C 108.92569 27.339371 111.036545 27.773834 112.353951 28.088058 C 113.671356 28.402267 115.972832 29.062225 117.46833 29.554642 C 118.963829 30.047028 121.299232 30.916626 122.658134 31.487045 C 124.017021 32.057465 126.071999 33.006607 127.224739 33.596237 C 128.377472 34.185867 130.297485 35.256088 131.491425 35.974518 C 132.685379 36.692947 134.481857 37.855728 135.483582 38.558487 C 136.485321 39.26123 138.158264 40.521378 139.201202 41.358826 C 140.244156 42.196274 142.035553 43.753448 143.182053 44.819229 C 144.328568 45.88501 146.248734 47.879791 147.449066 49.25209 C 148.649414 50.624405 150.394119 52.762177 151.326172 54.002731 C 152.258224 55.243256 152.987854 56.288696 152.947586 56.325912 C 152.907303 56.363129 152.065933 55.816971 151.077881 55.112244 C 150.089813 54.407516 148.318817 53.250885 147.142334 52.541946 C 145.965836 51.833008 144.009064 50.752762 142.793945 50.141403 C 141.578812 49.530045 139.667038 48.638367 138.545563 48.159882 C 137.424088 47.681396 135.473541 46.934708 134.211014 46.500534 C 132.948486 46.066376 130.65799 45.389435 129.121017 44.996201 C 127.58403 44.602982 125.248611 44.096924 123.931206 43.871643 C 122.6138 43.646347 120.278381 43.357788 118.741402 43.230377 C 117.02774 43.088318 114.325623 43.045807 111.755127 43.120483 C 109.449661 43.187454 106.659607 43.377258 105.555023 43.542282 C 104.450432 43.707306 102.609055 44.036041 101.463066 44.272812 C 100.31707 44.509598 98.342461 45.004089 97.075043 45.371689 C 95.807632 45.739288 93.606949 46.504974 92.184647 47.073212 C 90.762352 47.641449 88.520767 48.645142 87.203354 49.30365 C 85.885941 49.962158 83.864914 51.088043 82.712181 51.805588 C 81.559448 52.523132 79.622368 53.85173 78.40757 54.758011 C 77.192764 55.664307 75.30648 57.207718 74.215805 58.18782 C 73.125137 59.167938 71.550858 60.724625 70.7174 61.647141 C 69.883949 62.569656 68.626076 64.04303 67.922127 64.92131 C 67.21817 65.799591 66.00473 67.461319 65.225594 68.614059 C 64.446457 69.7668 63.25824 71.698006 62.58511 72.905632 C 61.911983 74.113258 60.903934 76.134285 60.344997 77.396805 C 59.786068 78.659332 58.971119 80.725266 58.534 81.987785 C 58.096882 83.250313 57.476826 85.316246 57.156097 86.578773 C 56.835377 87.841293 56.393379 89.925842 56.173889 91.211113 C 55.954399 92.496384 55.682888 94.51741 55.57053 95.702293 C 55.458164 96.887169 55.366158 99.435379 55.366066 101.36499 C 55.365974 103.294586 55.462891 105.854561 55.581425 107.05381 C 55.699966 108.253059 55.971558 110.267235 56.184959 111.529755 C 56.398365 112.792274 56.834805 114.858215 57.154842 116.120735 C 57.474876 117.383255 58.152828 119.628845 58.661411 121.110931 C 59.169987 122.593018 60.377304 125.422462 61.344322 127.398582 C 62.453358 129.664902 63.845119 132.097046 65.113686 133.985641 C 66.219818 135.632401 67.880905 137.877991 68.804985 138.97583 C 69.729073 140.073685 71.641853 142.097443 73.055618 143.473099 C 74.469383 144.84874 76.479424 146.636536 77.522377 147.445984 C 78.565331 148.255432 80.541443 149.660797 81.91375 150.569016 C 83.286057 151.477249 85.537819 152.809555 86.917671 153.529694 C 88.297523 154.249847 90.37265 155.235458 91.52906 155.719955 C 92.685471 156.204453 94.790154 156.978027 96.206116 157.439011 C 97.622101 157.899994 99.882797 158.530899 101.229904 158.841003 C 102.577011 159.151123 104.867508 159.56897 106.319908 159.769562 C 108.285187 160.040985 110.211456 160.134277 113.851006 160.134277 C 116.540718 160.134277 119.76606 160.018387 121.018425 159.87674 C 122.270782 159.735107 124.236816 159.437546 125.387405 159.2155 C 126.537971 158.993469 128.537949 158.507095 129.831802 158.134689 C 131.125656 157.762283 133.052643 157.132339 134.113998 156.734802 C 135.175369 156.33728 136.073837 156.042145 136.110641 156.078918 C 136.147415 156.115707 135.192932 156.762848 133.989548 157.516998 C 132.786163 158.271149 130.659607 159.477814 129.26387 160.198486 C 127.868141 160.919174 125.755432 161.94339 124.56897 162.474518 C 123.382507 163.005661 121.112839 163.88298 119.525276 164.424118 C 117.937706 164.965256 115.404053 165.718323 113.894943 166.097595 C 112.385818 166.476868 109.759995 167.01738 108.059776 167.298737 C 106.35955 167.580093 104.038254 167.902115 102.901329 168.014343 C 101.764404 168.126572 98.620575 168.208389 95.915054 168.196182 Z M 113.790886 148.232361 C 111.683159 148.21846 109.33857 148.127533 108.580696 148.030289 C 107.822815 147.933044 106.332359 147.676102 105.268555 147.45932 C 104.204758 147.242523 102.536263 146.833862 101.560783 146.551178 C 100.585312 146.268494 98.842125 145.683273 97.687035 145.250687 C 96.531952 144.8181 94.733559 144.03479 93.690613 143.509979 C 92.647667 142.985199 91.044212 142.109619 90.127396 141.564255 C 89.210571 141.018906 87.503922 139.855255 86.334839 138.978378 C 85.165756 138.101501 83.139633 136.34993 81.832344 135.086029 C 80.525047 133.822113 78.73484 131.889755 77.854103 130.791916 C 76.973366 129.694061 75.63343 127.852684 74.876465 126.699951 C 74.119499 125.547218 72.969704 123.526192 72.321365 122.208778 C 71.673042 120.891365 70.781853 118.84742 70.340958 117.666695 C 69.900063 116.485954 69.269402 114.464928 68.939491 113.175514 C 68.609581 111.886101 68.182632 109.758385 67.990723 108.447258 C 67.742836 106.753746 67.641785 104.81395 67.641785 101.74897 C 67.641785 98.666794 67.743042 96.736076 67.996323 94.989006 C 68.191307 93.643944 68.660362 91.335808 69.038666 89.859787 C 69.416962 88.383781 70.10144 86.210861 70.559738 85.031075 C 71.018036 83.851303 71.865738 81.942879 72.443527 80.790138 C 73.021309 79.637398 73.980499 77.923653 74.575043 76.981789 C 75.169594 76.03994 76.229424 74.512932 76.930214 73.588455 C 77.631012 72.663979 79.151276 70.929031 80.308586 69.733009 C 81.465889 68.536987 83.17627 66.919495 84.109436 66.13858 C 85.042603 65.357651 86.524689 64.21434 87.402962 63.597885 C 88.281242 62.98143 89.942978 61.935944 91.095711 61.274628 C 92.248451 60.613281 94.120995 59.655045 95.25692 59.145203 C 96.392838 58.63533 98.368958 57.87146 99.648293 57.447662 C 100.92762 57.023895 103.013191 56.444794 104.282906 56.160797 C 105.552612 55.876816 107.752747 55.508621 109.172081 55.342606 C 110.591408 55.176575 112.844048 55.040726 114.177956 55.040726 C 115.511848 55.040726 117.533424 55.132645 118.670349 55.244995 C 119.807274 55.35733 121.655991 55.628235 122.778603 55.847 C 123.901222 56.065781 125.877335 56.549622 127.169975 56.922241 C 128.462616 57.29483 130.590042 58.053558 131.897583 58.608261 C 133.205139 59.162979 135.181259 60.124512 136.288956 60.74498 C 137.396667 61.365463 139.021561 62.378555 139.899841 62.996307 C 140.778122 63.614044 142.125473 64.653412 142.893951 65.306 C 143.662445 65.958588 144.953949 67.171974 145.763962 68.002411 C 146.573975 68.832848 147.797623 70.230881 148.483185 71.109161 C 149.168732 71.987442 150.255646 73.514435 150.89856 74.502495 C 151.541473 75.490555 152.333939 76.790466 152.659607 77.391182 C 153.251709 78.483406 153.251709 78.483406 152.643921 78.089806 C 152.309631 77.873337 151.024185 77.032486 149.787384 76.22126 C 148.550568 75.410034 146.493591 74.22657 145.216293 73.591316 C 143.939011 72.956078 141.950806 72.108932 140.798065 71.708763 C 139.645325 71.308586 137.759048 70.768639 136.606308 70.508873 C 135.453568 70.249107 133.638184 69.941071 132.572113 69.824341 C 131.506042 69.707603 129.889221 69.612831 128.979172 69.613731 C 128.069122 69.614632 126.516129 69.705704 125.528069 69.816116 C 124.540009 69.926521 122.78846 70.20488 121.635719 70.4347 C 120.482979 70.664513 118.631142 71.14962 117.520531 71.512711 C 116.40992 71.875809 114.568535 72.61515 113.428574 73.155685 C 112.288612 73.696213 110.412766 74.776909 109.260025 75.557205 C 108.107285 76.337502 106.429054 77.611 105.530609 78.387207 C 104.632156 79.163406 103.201096 80.627914 102.350456 81.64167 C 101.499817 82.655411 100.272446 84.293259 99.622955 85.281319 C 98.973473 86.269379 98.047226 87.899529 97.564659 88.903862 C 97.082069 89.908203 96.376259 91.659767 95.99617 92.796219 C 95.616081 93.932671 95.09903 95.895462 94.847168 97.15799 C 94.471649 99.04039 94.389244 100.100044 94.389244 103.046417 C 94.389244 105.022537 94.509987 107.477654 94.657562 108.502228 C 94.805138 109.526802 95.146179 111.188538 95.415436 112.194977 C 95.684692 113.201408 96.25943 114.908478 96.692627 115.98848 C 97.125832 117.068466 97.967834 118.820023 98.563728 119.880829 C 99.159645 120.941628 100.209816 122.573059 100.897461 123.506226 C 101.585106 124.439392 103.096771 126.155899 104.256721 127.320686 C 105.416664 128.485474 107.166901 130.02771 108.146118 130.747894 C 109.125328 131.468079 110.803757 132.557938 111.875931 133.1698 C 112.94812 133.781662 114.806335 134.684067 116.00531 135.17514 C 117.204285 135.666199 119.051292 136.292999 120.109756 136.568008 C 121.168228 136.843018 122.820351 137.182907 123.781158 137.323303 C 124.741959 137.463715 127.151466 137.578583 129.13562 137.578583 C 131.722229 137.578583 133.360413 137.474304 134.92424 137.210083 C 136.12384 137.007416 138.112274 136.536606 139.342987 136.163864 C 140.5737 135.791107 142.504913 135.081268 143.634552 134.586426 C 144.764206 134.091583 146.580429 133.193787 147.670609 132.591324 C 148.760773 131.988861 149.688828 131.532013 149.732941 131.576126 C 149.777039 131.620224 148.480865 132.99678 146.852554 134.635101 C 145.187805 136.31012 142.953354 138.311401 141.747482 139.207474 C 140.567978 140.083939 138.672943 141.355042 137.536255 142.032135 C 136.399567 142.709244 134.552734 143.669739 133.432159 144.166565 C 132.3116 144.663391 130.375519 145.421356 129.129761 145.850906 C 127.884003 146.280457 125.845413 146.859619 124.599548 147.137924 C 123.353691 147.416245 121.274315 147.782013 119.978729 147.950775 C 118.479538 148.146057 116.229836 148.248428 113.790886 148.232361 Z M 129.289261 126.48233 C 127.879311 126.47242 126.073143 126.346024 125.275536 126.201447 C 124.477936 126.056862 123.214561 125.753044 122.46804 125.526299 C 121.721519 125.299545 120.442894 124.80722 119.626648 124.432243 C 118.810417 124.057266 117.449333 123.295006 116.602028 122.738327 C 115.75473 122.181648 114.353844 121.050117 113.48896 120.223816 C 112.624077 119.397507 111.520859 118.180313 111.037361 117.518944 C 110.553848 116.857567 109.826576 115.770607 109.421173 115.103477 C 109.01577 114.436356 108.416412 113.24707 108.089241 112.460632 C 107.762093 111.674187 107.310829 110.329163 107.086441 109.47168 C 106.862068 108.614197 106.569283 106.973175 106.435814 105.824966 C 106.24704 104.201042 106.245743 103.232559 106.429993 101.465034 C 106.560265 100.215294 106.896996 98.398605 107.178276 97.427948 C 107.459564 96.457291 108.036903 94.922218 108.461258 94.01667 C 108.885605 93.11113 109.640335 91.76281 110.138428 91.020424 C 110.63652 90.27803 111.636436 89.021553 112.360458 88.228249 C 113.084488 87.434959 114.449165 86.206284 115.393074 85.497871 C 116.336983 84.789452 117.925621 83.807869 118.923378 83.316574 C 119.921143 82.825279 121.500984 82.184425 122.434151 81.892456 C 123.36731 81.600479 124.849396 81.255478 125.727676 81.125771 C 126.605957 80.996063 128.177872 80.889946 129.22081 80.889946 C 130.263763 80.889946 131.902649 81.004738 132.862762 81.14505 C 133.822876 81.285347 135.427063 81.667656 136.427612 81.994621 C 137.428177 82.321594 138.968262 82.964447 139.850006 83.423187 C 140.731766 83.88192 142.001938 84.655037 142.672607 85.141212 C 143.343262 85.627396 144.507233 86.621315 145.259171 87.349915 C 146.011124 88.078522 147.074112 89.258507 147.621384 89.972107 C 148.168655 90.685707 148.938583 91.844574 149.332352 92.547379 C 149.726089 93.250183 150.303619 94.452721 150.615738 95.219666 C 150.927856 95.986618 151.35701 97.29789 151.569443 98.133606 C 151.78186 98.969322 152.051132 100.598953 152.167831 101.755005 C 152.316467 103.227509 152.317459 104.466278 152.171158 105.891861 C 152.05632 107.011078 151.791183 108.596024 151.581985 109.413979 C 151.372787 110.231934 150.927673 111.559082 150.59285 112.363205 C 150.258011 113.167328 149.63147 114.428474 149.200546 115.165749 C 148.769623 115.903023 148.013092 117.025818 147.519379 117.660843 C 147.025665 118.295876 146.052444 119.366577 145.356659 120.040176 C 144.660889 120.713791 143.657745 121.589806 143.127487 121.986893 C 142.597214 122.383972 141.56424 123.056419 140.831985 123.481224 C 140.099731 123.906021 138.692215 124.574043 137.704147 124.965721 C 136.716095 125.357391 134.995331 125.862907 133.880234 126.089096 C 132.409805 126.387367 131.148529 126.495399 129.289261 126.48233 Z"/>
</svg>
